<?xml version="1.0" standalone="yes"?>
<svg width="500" height="500">
<path style="fill:#f1f1f1; stroke:none;" d="M0 0L0 500L500 500L500 0L0 0z"/>
<path style="fill:#bababa; stroke:none;" d="M174.667 193.333L175.333 193.667L174.667 193.333z"/>
<path style="fill:#151515; stroke:none;" d="M172.746 195.042C169.083 197.898 174.023 202.571 177.393 199.971C180.953 197.225 175.935 192.557 172.746 195.042z"/>
<path style="fill:#888888; stroke:none;" d="M177 194L178 195L177 194z"/>
<path style="fill:#858585; stroke:none;" d="M171 195L172 196L171 195z"/>
<path style="fill:#777777; stroke:none;" d="M173 201L173 202L177 202L173 201z"/>
<path style="fill:#a9a9a9; stroke:none;" d="M149 213L149 214L153 218L160 223L157 220L154 222L155 219L150 221L150 222L155 223L155 224L153 226L150 226L151 224L147 230L150 233L151 233C156.072 228.975 159.305 230.822 162 236L159 235L156 239L158 241L154 242L156 235L149 242L145 238L144 238L142 244L143 244L144 242L143 245L143 246L145 246L145 247C141.959 248.922 142.739 251.076 146 252L149 249L148 243L154 243L149 247L155 246L155 247L153 247L153 248L157 251L153 252L153 253L159 252L154 255L154 256L160 259L160 253L161 255L161 256L163 256L163 257L163 260L163 261C159.092 264.799 166.024 272.631 170 274L170 275L167 275L167 276L170 276L171 281L170 284L173 284L172 280L175 283C181.084 280.213 187.036 269.918 194 272C195.79 264.17 197.858 256.104 196.7 248C193.198 223.501 171.24 213 149 213z"/>
<path style="fill:#959595; stroke:none;" d="M116 251L115 254L119 255L117 251L121 248L126 249L124 252L127 256L134 251L138 254L138 255L134 255L136 259L134 259L134 260L136 260L136 261L133 263L138 260L137 264L142 262L136 269L136 270L142 270L141 273L149 276L150 280L146 278L141 279L141 280L144 283L145 283L149 283L150 283L150 281L152 281L148 284L150 288L151 288L151 285L152 285L155 288L155 295L155 296L167 293L172 290C172.365 286.137 175.794 282.814 172 280L173 284L170 284L171 281L167 276L167 275L170 275L170 274C165.984 271.738 160.742 265.636 163 261L163 260L163 257L163 256L161 256L161 255C163.334 253.985 161.91 253.579 160 253L160 259L154 256L154 255L159 252L153 253L153 252L157 251L153 248L153 247L155 247L155 246L149 247L150 244L154 243L148 243L149 249L146 252C142.638 250.358 143.002 248.872 145 246L143 246L143 245L145 245L144 242L143 244L142 244L144 238L145 238L149 242L156 235L154 242L158 241L158 238L156 239L157 236L159 237L162 236L160 234C160.094 228.245 153.774 229.654 151 233L150 233L147 230L151 224L150 226L153 226L155 224L155 223L150 222L150 221L155 219L154 222L157 220L160 223L153 218C152.27 212.209 144.045 214.143 140 215.491C129.419 219.018 120.255 227.791 115.852 238C114.43 241.296 110.707 250.267 116 251z"/>
<path style="fill:#aeaeae; stroke:none;" d="M354 221L354 222L360 222L354 221z"/>
<path style="fill:#494949; stroke:none;" d="M235 222L235 258L236 258C236 247.613 239.011 231.56 235 222z"/>
<path style="fill:#000000; stroke:none;" d="M236 222L236 258L243 258L243 235C251.055 243.771 255.746 257.953 269 258L269 222L262 222L262 246C253.398 237.73 249.45 222.048 236 222z"/>
<path style="fill:#252525; stroke:none;" d="M261 222L260 246C264.036 242.473 263.003 226.773 261 222z"/>
<path style="fill:#9e9e9e; stroke:none;" d="M350.667 222.333L351.333 222.667L350.667 222.333z"/>
<path style="fill:#545454; stroke:none;" d="M375 239L357 239L357 244L366 244C357.19 261.87 335.457 236.716 354.004 230.049C360.686 227.647 365.648 234.598 373 232C365.14 212.143 335.73 223.844 339.329 244C343.282 266.131 374.554 259.943 375 239z"/>
<path style="fill:#656565; stroke:none;" d="M244 223L245 224L244 223z"/>
<path style="fill:#6c6c6c; stroke:none;" d="M247 227L248 228L247 227z"/>
<path style="fill:#bdbdbd; stroke:none;" d="M354 229L354 230L359 230L354 229z"/>
<path style="fill:#767676; stroke:none;" d="M250 231L251 232L250 231z"/>
<path style="fill:#848484; stroke:none;" d="M282 233L282 234L288 234L282 233z"/>
<path style="fill:#a9a9a9; stroke:none;" d="M387 233L387 234L393 234L387 233z"/>
<path style="fill:#aaaaaa; stroke:none;" d="M419 233L419 234L422 234L419 233z"/>
<path style="fill:#8e8e8e; stroke:none;" d="M279 234L280 235L279 234z"/>
<path style="fill:#000000; stroke:none;" d="M297 250C289.949 250.082 283.907 255.101 280 247L298 247C296.817 233.555 275.189 227.46 273.133 243.004C271.14 258.08 292.779 264.904 297 250z"/>
<path style="fill:#5a5a5a; stroke:none;" d="M290 234L291 235L290 234z"/>
<path style="fill:#aaaaaa; stroke:none;" d="M297.333 234.667L297.667 235.333L297.333 234.667z"/>
<path style="fill:#000000; stroke:none;" d="M298 234L305 258L314 258L318 245L322 258L331 258L338 234L330 234L326 249C323.734 242.302 323.141 234.267 315 234L311 249L309 249L306 234L298 234z"/>
<path style="fill:#c9c9c9; stroke:none;" d="M338 234L338 242L339 242L340 234L338 234z"/>
<path style="fill:#a6a6a6; stroke:none;" d="M366.667 234.333L367.333 234.667L366.667 234.333z"/>
<path style="fill:#535353; stroke:none;" d="M402 250C394.949 250.082 388.907 255.101 385 247L403 247C402.635 231.914 379.299 228.285 377.228 244C375.285 258.747 398.032 264.009 402 250z"/>
<path style="fill:#818181; stroke:none;" d="M406 234L406 258L407 258L406 234z"/>
<path style="fill:#545454; stroke:none;" d="M407 234L407 258L414 258C414 254.364 412.087 241.207 418 241.207C423.913 241.207 422 254.364 422 258L429 258C429 249.911 430.026 225.735 415 236L407 234z"/>
<path style="fill:#bfbfbf; stroke:none;" d="M243 235L243 258L244 258L243 235z"/>
<path style="fill:#7e7e7e; stroke:none;" d="M253 235L254 236L253 235z"/>
<path style="fill:#9a9a9a; stroke:none;" d="M277 235L278 236L277 235z"/>
<path style="fill:#717171; stroke:none;" d="M306.333 235.667L306.667 236.333L306.333 235.667z"/>
<path style="fill:#373737; stroke:none;" d="M314.333 235.667L314.667 236.333L314.333 235.667z"/>
<path style="fill:#606060; stroke:none;" d="M276 236L277 237L276 236z"/>
<path style="fill:#595959; stroke:none;" d="M329.333 236.667L329.667 237.333L329.333 236.667z"/>
<path style="fill:#b8b8b8; stroke:none;" d="M298.333 237.667L298.667 238.333L298.333 237.667z"/>
<path style="fill:#c2c2c2; stroke:none;" d="M346 237L346 243L347 243L346 237z"/>
<path style="fill:#1a1a1a; stroke:none;" d="M225 238L225 274L226 274L227 238L225 238z"/>
<path style="fill:#656565; stroke:none;" d="M246 238L247 239L246 238z"/>
<path style="fill:#737373; stroke:none;" d="M274 238L275 239L274 238z"/>
<path style="fill:#404040; stroke:none;" d="M313.333 238.667L313.667 239.333L313.333 238.667z"/>
<path style="fill:#363636; stroke:none;" d="M322.333 238.667L322.667 239.333L322.333 238.667z"/>
<path style="fill:#7d7d7d; stroke:none;" d="M357 238L357 239L375 241C376.788 236.258 360.337 238 357 238z"/>
<path style="fill:#828282; stroke:none;" d="M256 239L257 240L256 239M283 239L283 240L287 240L283 239z"/>
<path style="fill:#656565; stroke:none;" d="M296 239L297 240L296 239z"/>
<path style="fill:#747474; stroke:none;" d="M307.333 239.667L307.667 240.333L307.333 239.667z"/>
<path style="fill:#ababab; stroke:none;" d="M388 239L388 240L392 240L388 239z"/>
<path style="fill:#f0f0f0; stroke:none;" d="M281 241L281 242L289 242L289 240L281 241z"/>
<path style="fill:#6b6b6b; stroke:none;" d="M299 240L300 241L299 240z"/>
<path style="fill:#535353; stroke:none;" d="M328.333 240.667L328.667 241.333L328.333 240.667z"/>
<path style="fill:#b7b7b7; stroke:none;" d="M336.333 240.667L336.667 241.333L336.333 240.667z"/>
<path style="fill:#f1f1f1; stroke:none;" d="M386 241L386 242L394 242L394 240L386 241z"/>
<path style="fill:#afafaf; stroke:none;" d="M416 240L416 241L420 241L416 240z"/>
<path style="fill:#9e9e9e; stroke:none;" d="M289 241L281 242L281 243L289 241z"/>
<path style="fill:#3c3c3c; stroke:none;" d="M297.333 241.667L297.667 242.333L297.333 241.667z"/>
<path style="fill:#484848; stroke:none;" d="M312.333 241.667L312.667 242.333L312.333 241.667z"/>
<path style="fill:#383838; stroke:none;" d="M323.333 241.667L323.667 242.333L323.333 241.667z"/>
<path style="fill:#b9b9b9; stroke:none;" d="M394 241L386 242L386 243L394 241z"/>
<path style="fill:#b4b4b4; stroke:none;" d="M429 241L429 258L430 258L429 241z"/>
<path style="fill:#bcbcbc; stroke:none;" d="M225 242L225 245L226 245L225 242z"/>
<path style="fill:#7d7d7d; stroke:none;" d="M227 242L227 245L228 245L227 242z"/>
<path style="fill:#5e5e5e; stroke:none;" d="M249 242L250 243L249 242z"/>
<path style="fill:#2a2a2a; stroke:none;" d="M272 242L272 249L273 249L272 242z"/>
<path style="fill:#cccccc; stroke:none;" d="M421 242L421 258L422 258L421 242z"/>
<path style="fill:#8c8c8c; stroke:none;" d="M259 243L260 244L259 243z"/>
<path style="fill:#6e6e6e; stroke:none;" d="M300 243L301 244L300 243M308.333 243.667L308.667 244.333L308.333 243.667z"/>
<path style="fill:#929292; stroke:none;" d="M324 244L325 245L324 244z"/>
<path style="fill:#505050; stroke:none;" d="M327.333 244.667L327.667 245.333L327.333 244.667z"/>
<path style="fill:#acacac; stroke:none;" d="M357 244L357 245L366 245L357 244z"/>
<path style="fill:#959595; stroke:none;" d="M251 245L252 246L251 245z"/>
<path style="fill:#585858; stroke:none;" d="M317.667 245.333L318.333 245.667L317.667 245.333z"/>
<path style="fill:#a7a7a7; stroke:none;" d="M317.667 246.333L318.333 246.667L317.667 246.333z"/>
<path style="fill:#acacac; stroke:none;" d="M226 247L226 260L227 260L226 247z"/>
<path style="fill:#a4a4a4; stroke:none;" d="M228 247L228 262L229 262L228 247z"/>
<path style="fill:#b1b1b1; stroke:none;" d="M280 247L280 248L298 248L280 247z"/>
<path style="fill:#acacac; stroke:none;" d="M309.667 247.333L310.333 247.667L309.667 247.333z"/>
<path style="fill:#c6c6c6; stroke:none;" d="M385 247L385 248L403 248L385 247z"/>
<path style="fill:#aaaaaa; stroke:none;" d="M121 248L117 251L119 255L115 254L116 251L112 250C112 261.326 113.668 275.262 123 283C127.665 276.515 141.617 270.251 142 262L137 264L138 260L133 263L136 261L136 260L134 259L136 259L134 255L138 255L138 254L134 251L127 256L124 252L126 249L121 248z"/>
<path style="fill:#575757; stroke:none;" d="M309.667 248.333L310.333 248.667L309.667 248.333z"/>
<path style="fill:#9e9e9e; stroke:none;" d="M316.333 248.667L316.667 249.333L316.333 248.667z"/>
<path style="fill:#a8a8a8; stroke:none;" d="M319.333 248.667L319.667 249.333L319.333 248.667z"/>
<path style="fill:#8a8a8a; stroke:none;" d="M254 249L255 250L254 249z"/>
<path style="fill:#989898; stroke:none;" d="M280 249L281 250L280 249z"/>
<path style="fill:#afafaf; stroke:none;" d="M290 249L290 250L297 252C298.458 248.131 292.572 249.002 290 249z"/>
<path style="fill:#767676; stroke:none;" d="M333 249L334 250L333 249z"/>
<path style="fill:#c8c8c8; stroke:none;" d="M396 249L396 250L402 252C403.356 248.402 398.535 249.01 396 249z"/>
<path style="fill:#c0c0c0; stroke:none;" d="M354 250L354 251L359 251L354 250z"/>
<path style="fill:#a5a5a5; stroke:none;" d="M283 252L283 253L288 253L283 252z"/>
<path style="fill:#bdbdbd; stroke:none;" d="M388 252L388 253L393 253L388 252z"/>
<path style="fill:#b3b3b3; stroke:none;" d="M93 253L93 255L110 254L93 253z"/>
<path style="fill:#888888; stroke:none;" d="M257 253L258 254L257 253z"/>
<path style="fill:#717171; stroke:none;" d="M274 253L275 254L274 253z"/>
<path style="fill:#616161; stroke:none;" d="M92 254L92 264L93 264L92 254z"/>
<path style="fill:#6e6e6e; stroke:none;" d="M107 254L107 255L109 262L110 262L110 254L107 254z"/>
<path style="fill:#8e8e8e; stroke:none;" d="M295 254L296 255L295 254z"/>
<path style="fill:#a5a5a5; stroke:none;" d="M321.333 254.667L321.667 255.333L321.333 254.667z"/>
<path style="fill:#686868; stroke:none;" d="M276 255L277 256L276 255z"/>
<path style="fill:#919191; stroke:none;" d="M294 255L295 256L294 255z"/>
<path style="fill:#717171; stroke:none;" d="M260 257L261 258L260 257z"/>
<path style="fill:#9e9e9e; stroke:none;" d="M350.667 257.333L351.333 257.667L350.667 257.333z"/>
<path style="fill:#868686; stroke:none;" d="M283 258L283 259L288 259L283 258z"/>
<path style="fill:#acacac; stroke:none;" d="M353 258L353 259L359 259L353 258z"/>
<path style="fill:#adadad; stroke:none;" d="M388 258L388 259L393 259L388 258z"/>
<path style="fill:#929292; stroke:none;" d="M110 260C109.264 266.758 111.694 273.185 115 279L116 279L110 260z"/>
<path style="fill:#747474; stroke:none;" d="M226.333 260.667L226.667 261.333L226.333 260.667z"/>
<path style="fill:#909090; stroke:none;" d="M92 264L98 284L99 284L92 264z"/>
<path style="fill:#686868; stroke:none;" d="M227 264L227 267L228 267L227 264z"/>
<path style="fill:#767676; stroke:none;" d="M225.333 267.667L225.667 268.333L225.333 267.667z"/>
<path style="fill:#c6c6c6; stroke:none;" d="M234 268L234 298L235 298L234 268z"/>
<path style="fill:#000000; stroke:none;" d="M235 268L235 297L334 297L334 268L235 268z"/>
<path style="fill:#a0a0a0; stroke:none;" d="M334 268L334 298L335 298L334 268z"/>
<path style="fill:#6f6f6f; stroke:none;" d="M157 297L155 296L155 295L158 294L155 288L152 285L151 285L151 288L150 288L148 284L152 281L150 283L149 283L145 283L144 283L141 280L141 279L146 278L150 280L149 276C144.536 276.398 142.536 274.382 142 270C136.572 270.161 120.733 277.343 124.238 284.711C128.788 294.277 147.588 298.837 157 297z"/>
<path style="fill:#6e6e6e; stroke:none;" d="M172 290L167 293L161 297C172.983 295.237 194.138 284.732 192 270C185.52 272.978 172.318 282.591 172 290z"/>
<path style="fill:#787878; stroke:none;" d="M226.333 270.667L226.667 271.333L226.333 270.667z"/>
<path style="fill:#434343; stroke:none;" d="M224 272L225 276L226 276L224 272z"/>
<path style="fill:#131313; stroke:none;" d="M224 275C208.206 310.454 178.7 331.017 139 326C143.528 331.262 156.603 329 163 329L164 350C175.652 349.073 187.867 345.892 198 340C196.458 335.404 189.082 325.768 190.446 321.21C191.605 317.336 198.945 314.48 201.91 311.985C209.988 305.192 227.54 286.971 224 275z"/>
<path style="fill:#797979; stroke:none;" d="M245 276L246 277L245 276z"/>
<path style="fill:#bfbfbf; stroke:none;" d="M246 276L246 277L250 278L250 277L246 276z"/>
<path style="fill:#939393; stroke:none;" d="M252 276L252 282L253 282L252 276z"/>
<path style="fill:#d0d0d0; stroke:none;" d="M253 276C253.013 279.194 252.597 281.271 256 282L256 281L256 277L253 276z"/>
<path style="fill:#9d9d9d; stroke:none;" d="M258 276L260 282L258 276z"/>
<path style="fill:#f4f4f4; stroke:none;" d="M259.667 276.333L260.333 276.667L259.667 276.333z"/>
<path style="fill:#c0c0c0; stroke:none;" d="M261 276L259 278L263 282L261 276z"/>
<path style="fill:#252525; stroke:none;" d="M264 276L264 282L265 282L264 276z"/>
<path style="fill:#efefef; stroke:none;" d="M265 276L265 282L266 282L268 278L265 276z"/>
<path style="fill:#8e8e8e; stroke:none;" d="M266 276L267 277L266 276z"/>
<path style="fill:#cecece; stroke:none;" d="M269 276L267 280L270 282L269 276z"/>
<path style="fill:#6b6b6b; stroke:none;" d="M270 276L270 282L271 282L270 276z"/>
<path style="fill:#cfcfcf; stroke:none;" d="M277 282L277 281L274 280L274 278L277 277C272.403 275.965 273.363 280.791 277 282z"/>
<path style="fill:#626262; stroke:none;" d="M277 276L278 277L277 276z"/>
<path style="fill:#585858; stroke:none;" d="M280 276L280 282L281 282L280 276z"/>
<path style="fill:#e4e4e4; stroke:none;" d="M281 276L281 282L282 282L281 276z"/>
<path style="fill:#d0d0d0; stroke:none;" d="M285 276L284 282L289 282L288 276L285 276z"/>
<path style="fill:#dddddd; stroke:none;" d="M291 276L291 282L292 282L292 279L293 279L294 282L295 282L291 276z"/>
<path style="fill:#dadada; stroke:none;" d="M296 276L295 280L296 280L296 276z"/>
<path style="fill:#b0b0b0; stroke:none;" d="M297 276L297 282L298 282L297 276z"/>
<path style="fill:#cfcfcf; stroke:none;" d="M300 276L300 282L304 282L304 281L304 277L300 276z"/>
<path style="fill:#272727; stroke:none;" d="M305 276L305 282L306 282L305 276z"/>
<path style="fill:#efefef; stroke:none;" d="M306 276L306 282L307 282L309 278L306 276z"/>
<path style="fill:#909090; stroke:none;" d="M307 276L308 277L307 276z"/>
<path style="fill:#d0d0d0; stroke:none;" d="M310 276L308 280L311 282L310 276z"/>
<path style="fill:#6e6e6e; stroke:none;" d="M311 276L311 282L312 282L311 276z"/>
<path style="fill:#f2f2f2; stroke:none;" d="M313 276L313 277L315 282L316 282L317 276L313 276z"/>
<path style="fill:#828282; stroke:none;" d="M317 276L318 277L317 276z"/>
<path style="fill:#787878; stroke:none;" d="M320 276L321 277L320 276z"/>
<path style="fill:#b6b6b6; stroke:none;" d="M321.264 276.89C318.377 277.88 319.864 282.18 322.736 281.249C325.628 280.312 324.2 275.882 321.264 276.89z"/>
<path style="fill:#c6c6c6; stroke:none;" d="M244 277C244.157 279.149 246.413 284.666 249.167 280.778C249.62 280.138 247.9 278.068 248 281L246 277L244 277z"/>
<path style="fill:#4a4a4a; stroke:none;" d="M246 277L246 278L250 279L250 278L246 277z"/>
<path style="fill:#646464; stroke:none;" d="M260.333 277.667L260.667 278.333L260.333 277.667z"/>
<path style="fill:#6e6e6e; stroke:none;" d="M262.333 277.667L262.667 278.333L262.333 277.667z"/>
<path style="fill:#747474; stroke:none;" d="M275.667 277.333L276.333 277.667L275.667 277.333z"/>
<path style="fill:#dddddd; stroke:none;" d="M277 277L278 278L277 277z"/>
<path style="fill:#5c5c5c; stroke:none;" d="M295 277L296 278L295 277z"/>
<path style="fill:#383838; stroke:none;" d="M302 277L302 281C303.813 279.444 303.813 278.556 302 277z"/>
<path style="fill:#444444; stroke:none;" d="M314 277L314 282L315 282L314 277z"/>
<path style="fill:#3b3b3b; stroke:none;" d="M321.667 277.333L322.333 277.667L321.667 277.333z"/>
<path style="fill:#7f7f7f; stroke:none;" d="M245.333 278.667L245.667 279.333L245.333 278.667z"/>
<path style="fill:#010101; stroke:none;" d="M246.333 278.667L246.667 279.333L246.333 278.667z"/>
<path style="fill:#616161; stroke:none;" d="M254 278L254 280L256 280L256 278L254 278z"/>
<path style="fill:#454545; stroke:none;" d="M272.333 278.667L272.667 279.333L272.333 278.667z"/>
<path style="fill:#363636; stroke:none;" d="M286.333 278.667L286.667 279.333L286.333 278.667z"/>
<path style="fill:#000000; stroke:none;" d="M321 278L321 280L324 280L324 278L321 278z"/>
<path style="fill:#9a9a9a; stroke:none;" d="M116 279C118.209 284.701 122.452 289.412 128 292L116 279z"/>
<path style="fill:#262626; stroke:none;" d="M266 279L266 282L268 281L268 280L266 279z"/>
<path style="fill:#717171; stroke:none;" d="M284 279L285 280L284 279z"/>
<path style="fill:#606060; stroke:none;" d="M292 279L292 282L293 282L292 279z"/>
<path style="fill:#686868; stroke:none;" d="M294 279L295 280L294 279z"/>
<path style="fill:#898989; stroke:none;" d="M296 279L297 282L296 279z"/>
<path style="fill:#494949; stroke:none;" d="M246.667 280.333L247.333 280.667L246.667 280.333z"/>
<path style="fill:#717171; stroke:none;" d="M275.667 280.333L276.333 280.667L275.667 280.333z"/>
<path style="fill:#e2e2e2; stroke:none;" d="M277 280L278 281L277 280z"/>
<path style="fill:#3f3f3f; stroke:none;" d="M321.667 280.333L322.333 280.667L321.667 280.333z"/>
<path style="fill:#626262; stroke:none;" d="M277 281L278 282L277 281z"/>
<path style="fill:#979797; stroke:none;" d="M99 284L104 292L99 284z"/>
<path style="fill:#9f9f9f; stroke:none;" d="M244 284L244 290L245 290L244 284z"/>
<path style="fill:#e3e3e3; stroke:none;" d="M245.667 284.333L246.333 284.667L245.667 284.333z"/>
<path style="fill:#afafaf; stroke:none;" d="M247 284L247 286L249 286L247 284z"/>
<path style="fill:#575757; stroke:none;" d="M251 284L251 290L252 290L251 284z"/>
<path style="fill:#eaeaea; stroke:none;" d="M252 284C252.013 287.194 251.597 289.271 255 290L255 289L255 285L252 284z"/>
<path style="fill:#efefef; stroke:none;" d="M265 290L265 289L262 288L262 286L265 285C260.403 283.965 261.363 288.791 265 290z"/>
<path style="fill:#5f5f5f; stroke:none;" d="M265 284L266 285L265 284z"/>
<path style="fill:#cfcfcf; stroke:none;" d="M270.564 285.171C268.573 286.471 270.241 290.261 272.436 288.829C274.427 287.529 272.759 283.739 270.564 285.171z"/>
<path style="fill:#989898; stroke:none;" d="M276 284L276 287L278 284L276 284z"/>
<path style="fill:#dcdcdc; stroke:none;" d="M279 284L279 287L281 287L281 284L279 284z"/>
<path style="fill:#e7e7e7; stroke:none;" d="M283.333 284.667L283.667 285.333L283.333 284.667z"/>
<path style="fill:#e3e3e3; stroke:none;" d="M290 290L290 289L287 288L287 286L288 285L290 285L291 288C292.418 281.7 281.679 287.234 290 290z"/>
<path style="fill:#d9d9d9; stroke:none;" d="M294 284L294 290L295 290L298 284L294 284z"/>
<path style="fill:#dddddd; stroke:none;" d="M301 284L301 290L302 290L303 288L306 290L301 284z"/>
<path style="fill:#e6e6e6; stroke:none;" d="M304 284L305 285L304 284z"/>
<path style="fill:#7e7e7e; stroke:none;" d="M305 284L306 285L305 284z"/>
<path style="fill:#f0f0f0; stroke:none;" d="M308 284L308 290L309 290L308 284z"/>
<path style="fill:#303030; stroke:none;" d="M309 284L309 290L310 290L309 284z"/>
<path style="fill:#606060; stroke:none;" d="M311 284L311 290L312 290L311 284z"/>
<path style="fill:#b9b9b9; stroke:none;" d="M312 284L312 290L313 290L313 287L316 288L312 284z"/>
<path style="fill:#f2f2f2; stroke:none;" d="M316 284L316 290L317 290L316 284z"/>
<path style="fill:#2f2f2f; stroke:none;" d="M317 284L317 290L318 290L317 284z"/>
<path style="fill:#f1f1f1; stroke:none;" d="M321.667 284.333L322.333 284.667L321.667 284.333z"/>
<path style="fill:#999999; stroke:none;" d="M323 284L323 286L325 286L323 284z"/>
<path style="fill:#000000; stroke:none;" d="M246 285L246 289L247 289L246 285z"/>
<path style="fill:#737373; stroke:none;" d="M263.667 285.333L264.333 285.667L263.667 285.333z"/>
<path style="fill:#e0e0e0; stroke:none;" d="M265 285L266 286L265 285z"/>
<path style="fill:#000000; stroke:none;" d="M271 285L271 289L272 289L271 285z"/>
<path style="fill:#a1a1a1; stroke:none;" d="M282 285L278 287L278 288L284 286L282 285z"/>
<path style="fill:#515151; stroke:none;" d="M288.667 285.333L289.333 285.667L288.667 285.333z"/>
<path style="fill:#6e6e6e; stroke:none;" d="M295 285L295 287L297 287L297 285L295 285z"/>
<path style="fill:#aeaeae; stroke:none;" d="M303 285L303 287L305 285L303 285z"/>
<path style="fill:#cbcbcb; stroke:none;" d="M320 285C320.597 288.58 322.572 290.669 325 287L322 289L322 285L320 285z"/>
<path style="fill:#4d4d4d; stroke:none;" d="M322 285L322 289L323 289L326 288L322 285z"/>
<path style="fill:#f1f1f1; stroke:none;" d="M248.333 286.667L248.667 287.333L248.333 286.667z"/>
<path style="fill:#7c7c7c; stroke:none;" d="M253 286L253 288L255 288L255 286L253 286z"/>
<path style="fill:#424242; stroke:none;" d="M260.333 286.667L260.667 287.333L260.333 286.667z"/>
<path style="fill:#808080; stroke:none;" d="M268.333 286.667L268.667 287.333L268.333 286.667z"/>
<path style="fill:#686868; stroke:none;" d="M274.333 286.667L274.667 287.333L274.333 286.667z"/>
<path style="fill:#f3f3f3; stroke:none;" d="M277 286L279 290L277 286z"/>
<path style="fill:#464646; stroke:none;" d="M287.333 286.667L287.667 287.333L287.333 286.667z"/>
<path style="fill:#000000; stroke:none;" d="M288 286L288 288L290 288L290 286L288 286z"/>
<path style="fill:#8c8c8c; stroke:none;" d="M290 286L290 290L291 290L290 286z"/>
<path style="fill:#7f7f7f; stroke:none;" d="M319.333 286.667L319.667 287.333L319.333 286.667z"/>
<path style="fill:#020202; stroke:none;" d="M321.333 286.667L321.667 287.333L321.333 286.667z"/>
<path style="fill:#f1f1f1; stroke:none;" d="M282 287L281 290L282 287z"/>
<path style="fill:#727272; stroke:none;" d="M297 287L298 288L297 287z"/>
<path style="fill:#a9a9a9; stroke:none;" d="M247 288L247 290L249 288L247 288z"/>
<path style="fill:#747474; stroke:none;" d="M263.667 288.333L264.333 288.667L263.667 288.333z"/>
<path style="fill:#dddddd; stroke:none;" d="M265 288L266 289L265 288z"/>
<path style="fill:#4e4e4e; stroke:none;" d="M288.667 288.333L289.333 288.667L288.667 288.333z"/>
<path style="fill:#5e5e5e; stroke:none;" d="M295 288L295 290L297 288L295 288z"/>
<path style="fill:#cdcdcd; stroke:none;" d="M297 288L297 290L299 290L297 288z"/>
<path style="fill:#e5e5e5; stroke:none;" d="M245.667 289.333L246.333 289.667L245.667 289.333z"/>
<path style="fill:#5e5e5e; stroke:none;" d="M265 289L266 290L265 289z"/>
<path style="fill:#585858; stroke:none;" d="M269 289L270 290L269 289z"/>
<path style="fill:#828282; stroke:none;" d="M315 289L316 290L315 289z"/>
<path style="fill:#808080; stroke:none;" d="M104 292L111 300L104 292z"/>
<path style="fill:#777777; stroke:none;" d="M128 292L131 294L128 292z"/>
<path style="fill:#8d8d8d; stroke:none;" d="M215 293L216 294L215 293z"/>
<path style="fill:#5b5b5b; stroke:none;" d="M131 294L131 297L132 297L131 294z"/>
<path style="fill:#aeaeae; stroke:none;" d="M140.667 295.333L141.333 295.667L140.667 295.333z"/>
<path style="fill:#828282; stroke:none;" d="M213 296L214 297L213 296z"/>
<path style="fill:#8d8d8d; stroke:none;" d="M130 297L129 300L130 297z"/>
<path style="fill:#b5b5b5; stroke:none;" d="M148 297L148 298L152 298L148 297z"/>
<path style="fill:#c3c3c3; stroke:none;" d="M155 297L155 298L161 298L155 297z"/>
<path style="fill:#6d6d6d; stroke:none;" d="M235 297L235 298L334 298L304 297L235 297z"/>
<path style="fill:#6f6f6f; stroke:none;" d="M211 299L212 300L211 299z"/>
<path style="fill:#888888; stroke:none;" d="M213 299L214 300L213 299z"/>
<path style="fill:#555555; stroke:none;" d="M111 300L112 301L111 300z"/>
<path style="fill:#979797; stroke:none;" d="M112 301L117 305L112 301z"/>
<path style="fill:#3e3e3e; stroke:none;" d="M128 301L129 302L128 301z"/>
<path style="fill:#777777; stroke:none;" d="M127 302L125 306L127 302z"/>
<path style="fill:#666666; stroke:none;" d="M117 305L118 306L117 305z"/>
<path style="fill:#a3a3a3; stroke:none;" d="M118 306L121 308L118 306z"/>
<path style="fill:#3b3b3b; stroke:none;" d="M125 306L126 307L125 306z"/>
<path style="fill:#757575; stroke:none;" d="M207 306L208 307L207 306z"/>
<path style="fill:#919191; stroke:none;" d="M121 309L126 307L121 309z"/>
<path style="fill:#818181; stroke:none;" d="M206 307L207 308L206 307z"/>
<path style="fill:#939393; stroke:none;" d="M205 308L206 309L205 308z"/>
<path style="fill:#949494; stroke:none;" d="M200 310L201 311L200 310z"/>
<path style="fill:#989898; stroke:none;" d="M203 310L204 311L203 310z"/>
<path style="fill:#8f8f8f; stroke:none;" d="M196 313L197 314L196 313z"/>
<path style="fill:#777777; stroke:none;" d="M195 314L196 315L195 314M192 316L193 317L192 316z"/>
<path style="fill:#8b8b8b; stroke:none;" d="M195 316L196 317L195 316z"/>
<path style="fill:#8c8c8c; stroke:none;" d="M190 317L191 318L190 317z"/>
<path style="fill:#868686; stroke:none;" d="M186 318L186 319L189 319L186 318z"/>
<path style="fill:#797979; stroke:none;" d="M190 319L191 320L190 319z"/>
<path style="fill:#838383; stroke:none;" d="M189 322L190 323L189 322z"/>
<path style="fill:#bcbcbc; stroke:none;" d="M166 324L166 325L169 325L166 324z"/>
<path style="fill:#7d7d7d; stroke:none;" d="M190 324L191 325L190 324z"/>
<path style="fill:#6d6d6d; stroke:none;" d="M162.667 325.333L163.333 325.667L162.667 325.333z"/>
<path style="fill:#7e7e7e; stroke:none;" d="M142.667 326.333L143.333 326.667L142.667 326.333z"/>
<path style="fill:#595959; stroke:none;" d="M150 327L150 328L156 328L150 327z"/>
<path style="fill:#bbbbbb; stroke:none;" d="M142 328L142 329L145 329L142 328z"/>
<path style="fill:#838383; stroke:none;" d="M162 329L162 334L163 334L162 329z"/>
<path style="fill:#c6c6c6; stroke:none;" d="M162 334L162 338L163 338L162 334z"/>
<path style="fill:#5c5c5c; stroke:none;" d="M196.333 335.667L196.667 336.333L196.333 335.667z"/>
<path style="fill:#949494; stroke:none;" d="M197 340L198 341L197 340z"/>
<path style="fill:#6e6e6e; stroke:none;" d="M163 341L163 344L164 344L163 341z"/>
<path style="fill:#707070; stroke:none;" d="M195 341L196 342L195 341z"/>
<path style="fill:#b7b7b7; stroke:none;" d="M185.667 345.333L186.333 345.667L185.667 345.333z"/>
<path style="fill:#b6b6b6; stroke:none;" d="M182.667 346.333L183.333 346.667L182.667 346.333z"/>
<path style="fill:#4b4b4b; stroke:none;" d="M173 348L173 349L176 349L173 348z"/>
<path style="fill:#5d5d5d; stroke:none;" d="M168 349L168 350L171 350L168 349z"/>
</svg>
